<svg xmlns="http://www.w3.org/2000/svg" xmlns:xlink="http://www.w3.org/1999/xlink" xml:space="preserve" width="100px" height="100px" style="shape-rendering:geometricPrecision; text-rendering:geometricPrecision; image-rendering:optimizeQuality; fill-rule:evenodd; clip-rule:evenodd" viewBox="0 0 100 100">
 <defs>
  <style type="text/css">
   
    .fil0 {fill:none}
    .fil1 {fill:black}
   
  </style>
 </defs>
 <g id="Layer_x0020_1">
  <metadata id="CorelCorpID_0Corel-Layer"/>
  <rect class="fil0" width="100" height="100"/>
  <path class="fil1" d="M77.6132 35.2231l-37.8688 0c-0.252758,1.22009 -0.0874023,24.3533 -0.0874023,26.2455l38.0696 0c-0.01063,-1.89568 0.132285,-25.0915 -0.113387,-26.2455z"/>
  <path class="fil1" d="M15.2245 33.266l15.5127 -0.00118111 0.0200789 18.2234c-0.14882,0.183072 -0.0862212,0.178348 -0.764179,0.192521 -2.62325,0.0566934 -14.2088,0.0685045 -14.8537,-0.107481 -0.227955,-1.95002 -0.01063,-13.3265 -0.04252,-17.2572l0.12756 -1.05001zm-6.62604 41.868l0.150001 0c0,-4.2331 4.33114,-8.91976 8.23943,-10.5875 4.96539,-2.1201 9.44417,-1.75513 14.0056,0.993315 1.50001,0.90355 2.85711,2.40002 3.87523,3.80554 1.86734,2.57955 2.03506,4.52248 2.49569,5.18508l0 -48.9464 -35.092 0c0.258663,0.966149 4.84256,5.03862 5.85949,8.29731 0.493705,1.58033 0.538587,4.4835 0.745281,6.33312 0.0661423,0.588194 -0.0188978,1.18702 0.0295278,1.77757 0.0507878,0.612997 0.150001,0.844495 0.146458,1.66064l0.1063 6.89061c-0.14882,1.07954 -0.252758,10.4469 -0.25512,12.2458 -0.00118111,0.827959 -0.119292,0.968512 -0.155907,1.65119 -0.0614178,1.13269 0.101576,2.49215 -0.02126,3.59294 -0.23386,2.07758 -0.128741,4.77287 -0.128741,7.10084z"/>
  <path class="fil1" d="M10.7068 76.9412c0,4.08547 0.787801,6.82683 3.45711,9.49496 2.6823,2.6823 5.39414,3.45711 9.49496,3.45711 5.87957,0 11.5973,-5.615 11.5973,-11.4462 0,-4.22838 -0.879928,-6.95557 -3.72523,-9.68039 -6.39572,-6.12406 -15.8434,-4.04058 -19.6206,3.50318 -0.623627,1.24489 -1.20355,2.81813 -1.20355,4.6713z"/>
  <polygon class="fil1" points="39.4728,75.5852 77.8778,75.5852 77.8778,63.6867 39.4728,63.6867 "/>
  <path class="fil1" d="M96.5535 89.7326c0.381499,-0.263388 1.1008,-1.46812 1.35474,-1.94765l-6.5847 -9.23039c-0.396854,-0.530319 -0.683864,-0.96733 -1.07481,-1.48466 -0.396854,-0.524414 -0.746463,-1.00985 -1.13623,-1.57442l-8.82527 -12.2588c-0.141733,0.2126 -0.154726,0.310632 -0.17008,0.589375 -0.118111,2.13545 0.0118111,10.2497 0.0118111,12.5127 0,4.4646 0,8.9292 0,13.3938l16.4245 0z"/>
  <path class="fil1" d="M63.871 16.3962l0 16.5675 14.0068 0 0 -16.5675c0,-0.346066 -0.105119,-0.451185 -0.452366,-0.451185l-13.1021 0c-0.347247,0 -0.452366,0.105119 -0.452366,0.451185z"/>
  <path class="fil1" d="M64.1722 13.9867l13.4044 0c0.504335,0 1.00631,-1.12914 1.3571,-1.80474 0.39331,-0.760636 0.758274,-1.35946 1.15276,-2.16143 0.227955,-0.464177 0.334255,-0.642525 0.589375,-1.06772l1.17048 -2.14254c0.211419,-0.418114 0.353152,-0.737014 0.549217,-1.1067l-22.8923 0c0.11693,0.500791 2.8642,5.57012 3.30711,6.33194 0.296459,0.51024 0.755911,1.9512 1.36182,1.9512z"/>
  <polygon class="fil1" points="79.9861,59.169 86.9145,59.169 86.9145,39.8909 79.9861,39.8909 "/>
  <path class="fil1" d="M52.576 84.0196c0,3.38743 2.37049,5.87367 5.2713,5.87367 1.91576,0 3.37207,-0.131103 5.01382,-1.7634 3.60121,-3.58113 0.604729,-9.98394 -4.41145,-9.98394 -3.19254,0 -5.87367,2.6823 -5.87367,5.87367z"/>
  <path class="fil1" d="M44.2917 89.8932c1.90868,0 3.38388,-0.310632 4.85555,-1.77167 0.875204,-0.869298 1.62049,-2.64569 1.62049,-3.952 0,-1.60986 -1.03702,-3.15711 -1.7823,-4.09019 -2.03387,-2.54648 -6.06383,-2.55711 -8.35046,-0.168899 -2.21222,2.30789 -2.29136,5.65634 -0.216143,8.13313 0.715754,0.855125 2.34096,1.84962 3.87287,1.84962z"/>
  <path class="fil1" d="M66.2804 84.0196c0,2.48388 1.13032,4.18704 3.0142,5.26894 1.17284,0.674415 2.14726,0.604729 3.46184,0.604729 2.23821,0 5.2713,-2.85593 5.2713,-5.1213 0,-1.42206 0.0708667,-1.91694 -0.64843,-3.26577 -0.235041,-0.438192 -0.866936,-1.35946 -1.20119,-1.66182 -0.526776,-0.475988 -0.986228,-0.794888 -1.60986,-1.1008 -4.12444,-2.0197 -8.28786,1.42796 -8.28786,5.27603z"/>
 </g>
</svg>